<svg width="74" height="69" viewBox="0 0 74 69" fill="none" xmlns="http://www.w3.org/2000/svg">
    <path d="M69.8 59.3c-.7 0-1-.4-1-.8 0-.6 1.1-5.1 1.2-6 0-.2.1-.4.1-.6 0-1.8-1.1-3.2-3-3.3-1.1 0-2.3.6-3.4 1.4l.3-1.4h-3.7l-.6 3.4c-.4.3-.8.5-1.4.5-.4 0-.6-.1-.7-.2-.1-1.9-.7-3.6-3.1-3.8-3.3-.2-6.8 2.7-6.8 9.1 0 .5 0 .9.1 1.3-.4.2-.8.4-1.1.4-1 .1-1.3-.4-1.3-1 0-.2.1-.5.1-.8 0 0 .9-3.9 1.1-4.9.5-2.5-.7-4-2.9-4.1-1.7-.1-2.6.7-3.4 2.1-1.8 3.1-2.3 4.8-2.5 4.6-.3-.2 4.2-14.3 2.2-17.4-1.4-2.2-4-2.3-5.5-.9l-.2-.2-.1-.1v.2c0 .1 0 .3.1.4-.9.8-3.5-.1-3.5 1.3h.7c0-.1.2-.2.3-.2.2 0 .3.1.3.3 0 .2-.1.3-.3.3-.1 0-.3-.1-.3-.2h-.7c0 .3.2.6.4.9.6.5 2.3.9 3.3 1 .2 0 .3 0 .5.1.1 0 .3.1.4.1.1 0 .2.1.3.1.1 0 .2.1.2.1-.1 0-.2 0-.3-.1-.1 0-.2 0-.3-.1-.2 0-.5 0-.8-.1H24.3l.5.5-.8.3h3l-1.4 6.1h1l1.4-6.1h6.4c-1.2.4-2.2.5-2.1.9.3.9 4-.2 3.8 1.9 0 .2 0 .5-.1.7-1 5.7-2.8 11.4-2.7 13.1-.7.6-1.3.9-2 1-1 .1-1.3-.4-1.3-1 0-.4 0-.5 1.8-8.5h1.5l.2-1H32c.3-1.6.6-2.9.8-3.6h-3.7s-1.7 7.9-2.4 11.2c0 .2-.1.5-.2.9v.1c-.1.4-.1.8-.1 1.2-.7.7-1.5 1.2-2.3 1.6l2.4-11.3h-3.7l-2 9.5s-1.1.9-1.9 1c-1 .1-1.3-.4-1.3-1 0-.2.1-.5.1-.8l1.9-8.8h-3.7L14 57.4c-.1.5-.2.9-.2 1.3 0 1.9 1.2 3 3.2 2.8 1.8-.2 3.5-1.9 3.5-1.9l-.5 1.8c-2.5.7-4.4 1.5-4.4 3.9 0 1.7 1.5 2.8 3 2.8 1.7 0 3.9-.7 4.6-4.4l.5-2.5c1.1-.4 2-.7 2.7-1.2.4 1.1 1.5 1.7 3 1.6 1.5-.1 2.7-1.1 3.9-2.2.2 1 .7 1.9 1.8 2.3.3.1.7.2 1 .1.1 0 .3 0 .4-.1 1.7-.3 2.4-1.8 5.1-7.2.7-1.4 1-1.9 1-1.3-.1.6-1.2 4.2-1.2 5.6 0 1.9 1.2 3 3.2 3 1.5 0 2.8-.4 3.8-1.1.6.7 1.6 1.1 3 1.1 2.6 0 5.4-2.6 5.9-7.7.7-.2 1.4-.5 2-.9l-1.8 8.4h3.7l2.2-10.4c.5-.4 1-.5 1.6-.5.7 0 1.2.6 1.2 1.5 0 .2 0 .4-.1.7l-1 4.6c-.1.5-.2.9-.2 1.3 0 1.9 1 3 2.6 3 1.5 0 4.8-.7 5.6-6.8.3.1-1.5 4.3-3.3 4.3zm-50.3 4.4c-.3 1.5-1 1.9-1.5 2-.5.1-1-.3-1-.9-.1-1.4 1.2-2.1 2.8-2.7l-.3 1.6zm17.2-25.5c0 .3-.1.4-.3.4-.2 0-.3-.2-.3-.3 0-.2.1-.3.2-.3H36c-.2 0-.3 0-.5.1-.3.2-.5.5-.5.9 0 .2.1.5.2.6-.3-.3-.5-.6-.5-1 0-.3.1-.6.3-.8l-.1-.1c-.1-.1-.1-.3-.1-.4v-.2s0 .1.1.2.1.2.2.3h.1c.2-.2.6-.3.9-.3.8 0 1.4.6 1.4 1.4l.7.2-1.2.2v-.2c0-.3-.1-.5-.3-.7zm18.8 16.1c-.3 2.5-1.2 5-2.8 5-.8 0-1.5-.5-1.7-1.4.9-1.6 1.3-3 1.3-3s-.5.6-1.2 1.3c.3-2.4 1.3-6.2 3.4-6.2.7 0 1 .5 1.1 1.3-.7.3-1.1 1.1-1.1 1.8-.1.6.3 1.2 1 1.2z" fill="#fff"/>
    <path d="M21.2 46.4c-.4.2-.7.4-1 .4-.3 0-.5-.2-.4-.5l1.3-5.6h-1l-1.3 5.8c-.2.8.1 1.3.9 1.3.6 0 1-.3 1.4-.5l-.1.3h1l1.6-7h-1l-1.4 5.8zM13.4 42.1c.3-.3.7-.4 1.2-.4l.3-1.1c-.5 0-.9.3-1.3.8l.2-.7h-1l-1.6 7h1l1.2-5.6zM17.4 43.2h1l.3-1.1c.2-1-.2-1.6-1.2-1.6h-.2c-1.1 0-1.7.5-2 1.6l-.9 4c-.2 1.1.2 1.6 1.2 1.6h.2c1.1 0 1.7-.5 2-1.6l.3-1.4h-1l-.3 1.4c-.1.4-.4.6-.8.6h-.2c-.4 0-.6-.2-.5-.6l.9-4.1c.1-.4.4-.6.8-.6h.2c.4 0 .6.2.5.6l-.3 1.2zM25.4 42.2h-1l-1.2 5.4h.9l1.3-5.4zM24.9 39.9H26l.2-1.1h-1l-.3 1.1zM9.9 48.4c-.9 0-2.1.7-2.1.7l.1-.5H4.2L.6 65.7h3.7l1.1-5c.8.5 1.6.8 2.4.8 2.6 0 4.9-1.9 5.7-7.4.1-.7.2-1.3.2-1.8-.1-2.6-1.1-4-3.8-3.9zm.2 6c-.9 4.1-1.4 5-2.8 5.2-.4 0-1.1 0-1.7-.5l1.9-8.7c.5-.3 1-.5 1.5-.5.8 0 1.4.3 1.4 1.9 0 .6-.1 1.5-.3 2.6zM12 38.8h-1l-.3 1.1h1l.3-1.1zM7.8 43.2h1l.3-1.1c.2-1-.2-1.6-1.2-1.6h-.2c-1.1 0-1.7.5-2 1.6l-.9 4c-.2 1.1.2 1.6 1.2 1.6h.2c1.1 0 1.7-.5 2-1.6l.3-1.4h-1l-.3 1.4c-.1.4-.4.6-.8.6h-.2c-.4 0-.6-.2-.5-.6l.9-4.1c.1-.4.4-.6.8-.6h.2c.4 0 .6.2.5.6l-.3 1.2zM11.5 40.6h-.9l-1.7 7h1l1.6-7zM7.6 12.3c.3-.9.6-1.7 1.1-2.2.5-.6 1-.8 1.6-.8.7 0 1 .5 1 1.5 0 .3 0 .6-.1.8L8.8 23h4.8l2.2-10.6c.3-.9.6-1.6 1.1-2.2.4-.6.9-.8 1.5-.8.8 0 1.2.6 1.2 1.7 0 .5-.1 1.1-.2 1.8-.2.7-.3 1.5-.5 2.3 0 .2-.1.5-.2 1.1-.1.5-.2 1.1-.3 1.7-.1.6-.2 1.1-.2 1.6 0 1.1.3 1.9.9 2.7.6.7 1.6 1.1 3 1.1 1.1 0 2.2-.4 3.3-1.2.5-.4.9-.9 1.4-1.6.2.6.5 1.1.9 1.5.8.9 1.9 1.3 3.1 1.3 1.1 0 2-.3 2.8-.8.8-.6 1.5-1.3 2.1-2.2.1 1 .4 1.7 1 2.3.6.5 1.3.8 2.2.8 1.2 0 2.4-.4 3.6-1.3.5-.4 1.1-.9 1.5-1.6.2.7.5 1.2.9 1.6.8.9 1.9 1.3 3.1 1.3 1.1 0 2-.3 2.8-.9.8-.6 1.5-1.3 2.1-2.2.1.9.5 1.6 1 2.1.6.5 1.3.7 2.2.7 2.1 0 3.8-.9 5.1-2.8.2.7.6 1.3 1 1.7.9.8 2.2 1.3 3.8 1.3 3.2 0 5.1-1.6 5.7-4.9-.6.5-1.2.9-1.9 1.3-.7.3-1.4.5-2 .5-1.4 0-2-.9-2-2.7 0-.2 0-.5.1-1 1.3-.1 2.6-.4 3.7-1.1 1.2-.6 2.1-1.5 2.8-2.5.7-1 1.1-2.2 1.1-3.4 0-2.1-1.2-3.2-3.6-3.2-2.1 0-3.8.7-5.1 2-1.3 1.3-2.3 2.9-2.9 4.7-.6 1.8-.9 3.5-.9 5v.3c-.2.4-.4.7-.6 1-.5.5-1 .8-1.6.8-.5 0-.8-.1-1-.3-.2-.2-.3-.5-.3-.9s0-.7.1-1.1L61.3.7h-4.7L55 8.3v-.1c0-.5-.2-.9-.7-1.2-.4-.3-1.1-.5-2-.5-1.8 0-3.3.6-4.6 1.9-1.3 1.2-2.3 2.8-2.9 4.6-.6 1.8-1 3.5-1 5.1v.4c-.2.4-.4.8-.7 1.1-.5.6-1 .9-1.6.9-.9 0-1.4-.5-1.4-1.4 0-.4 0-.7.1-1.1l2.4-11.2h-4.8l-.4 1.7v-.2c0-.5-.2-.9-.7-1.2-.4-.3-1.1-.5-2-.5-1.8 0-3.3.6-4.6 1.9-1.3 1.2-2.3 2.8-2.9 4.6-.6 1.8-1 3.5-1 5.1v.2c-.3.5-.5.9-.8 1.2-.4.5-.9.7-1.6.7-.5 0-.8-.1-1-.4-.2-.2-.3-.6-.3-1s.1-.9.2-1.5.3-1.3.5-2c.3-1.1.5-2.1.7-2.9.2-.8.2-1.5.2-2.1 0-1.3-.3-2.2-1-2.8-.7-.6-1.6-.9-2.7-.9-1.8 0-3.4.9-4.6 2.8-.3-1.9-1.5-2.8-3.4-2.8-1.6 0-2.9.6-4 1.9l.4-1.7H4l-3.4 16h4.8l2.2-10.6zm60.2-2.4c.8-1.4 1.5-2.1 2.3-2.1.5 0 .8.5.8 1.4 0 .9-.2 1.8-.7 2.6-.5.8-1 1.5-1.8 2-.7.5-1.5.8-2.4.8.4-1.7 1-3.3 1.8-4.7zm-18.7 3.6c.4-1.4.9-2.7 1.6-3.7.7-1 1.5-1.5 2.4-1.5.7 0 1.2.4 1.4 1.2L52.8 17v.2c-.2.9-.6 1.5-1.1 2-.5.5-1.1.7-1.6.7s-.9-.2-1.2-.5c-.3-.3-.5-1-.5-2.1.1-1.1.3-2.3.7-3.8zm-17.4 0c.4-1.4.9-2.7 1.6-3.7.7-1 1.5-1.5 2.4-1.5.5 0 .8.1 1 .4.2.3.3.6.3.8L35.5 17c-.2.9-.6 1.6-1.1 2.1-.5.5-1.1.8-1.6.8s-.9-.2-1.2-.5c-.3-.3-.5-1-.5-2.1s.2-2.3.6-3.8zM37.8 26.8c.2-.2.3-.4.3-.7 0-.3-.1-.5-.3-.7-.2-.2-.4-.3-.7-.3-.3 0-.5.1-.7.3-.2.2-.3.4-.3.7 0 .3.1.5.3.7.2.2.4.3.7.3.3 0 .5-.1.7-.3zM29.8 27.7h-1.7l-.8 3.8c-.1.3-.1.6-.1.8 0 .5.1.8.3 1.1.2.2.5.4.9.4.7 0 1.2-.3 1.7-1 .1.3.2.6.5.7.2.2.6.2.9.2.7 0 1.4-.3 1.9-.9.5-.6.9-1.3 1.1-2.1.2-.8.4-1.6.4-2.3 0-.3-.1-.5-.2-.7-.1-.2-.3-.3-.6-.3-.2 0-.4.1-.5.2-.1.1-.2.3-.2.5 0 .1 0 .3.1.4.1.1.2.2.3.2h.2c.1 0 .1 0 .2-.1 0 .5-.1 1-.3 1.6-.2.6-.4 1.2-.8 1.6-.3.5-.6.7-1 .7-.3 0-.4-.1-.4-.4 0-.1 0-.2.1-.4l.9-4H31l-.8 3.8c-.1.3-.2.6-.4.8-.2.2-.3.3-.6.3-.2 0-.4-.2-.4-.5v-.3l1-4.1zM44.6 30.8c0 .1 0 .2-.1.4 0 .2-.1.4-.1.6 0 .2-.1.4-.1.6 0 .4.1.7.3 1 .2.3.5.4.9.4.3 0 .6-.1.9-.3.2-.2.4-.5.4-.9-.1 0-.2.1-.4.1s-.3 0-.4-.1c-.1-.1-.1-.2-.1-.4 0-.1 0-.3.1-.5s.1-.5.2-.7c.1-.4.2-.7.2-1 .1-.3.1-.5.1-.8 0-.4-.1-.8-.4-1-.2-.2-.6-.3-1-.3-.5 0-1 .2-1.4.6l.6-2.7h-1.7l-1.3 6c-.1.3-.2.5-.4.7-.2.2-.4.3-.6.3-.2 0-.3 0-.4-.1-.1-.1-.1-.2-.1-.3V32l.8-3.5h.7l.1-.5h-.7l.3-1.6h-1.7l-1.2 5.4c-.1.3-.2.6-.4.8-.2.2-.4.3-.6.3-.2 0-.3 0-.4-.1-.1-.1-.1-.2-.1-.3v-.4l.9-4h-1.7l-.8 3.8c-.1.3-.1.6-.1.8 0 .5.1.8.3 1.1.2.2.5.4.9.4s.9-.2 1.4-.5c.2-.1.4-.3.6-.6 0 .3.2.5.3.7.2.2.5.4.9.4s.9-.2 1.4-.5l.3-.3v.3h1.7l.8-3.9c.1-.3.2-.5.4-.7.2-.2.3-.3.5-.3.3 0 .4.2.4.6 0 .2 0 .4-.1.6 0 .3-.1.6-.1.8zM50 30h23.2l.2-1H50.2l-.2 1zM24 29H.8l-.2.9v.1h23.2l.2-1z" fill="#fff"/>
</svg>
