<svg width="40" height="40" viewBox="0 0 40 40" fill="none" xmlns="http://www.w3.org/2000/svg">
    <g clip-path="url(#luc9q7ivaa)">
        <path d="M15 2.5c2.07 0 3.75 1.68 3.75 3.75V10h-2.133a3.135 3.135 0 0 0-2.867-1.875 3.124 3.124 0 1 0 0 6.25 3.135 3.135 0 0 0 2.867-1.875h2.133v8.75H15a3.756 3.756 0 0 0-3.734 3.375A3.13 3.13 0 0 0 9.375 27.5a3.124 3.124 0 1 0 6.25 0c0-1.266-.75-2.352-1.828-2.844A1.251 1.251 0 0 1 15 23.75h3.75v10c0 2.07-1.68 3.75-3.75 3.75-1.594 0-2.96-1-3.5-2.406a1.245 1.245 0 0 0-1.375-.782 4.378 4.378 0 0 1-4.773-6.016 1.244 1.244 0 0 0-.493-1.546A5.004 5.004 0 0 1 2.5 22.5c0-1.492.656-2.836 1.695-3.758.375-.328.516-.851.36-1.328a3.759 3.759 0 0 1 2.227-4.68c.57-.218.898-.812.78-1.406a3.747 3.747 0 0 1 2.758-4.352c.516-.132.89-.57.938-1.093A3.764 3.764 0 0 1 15 2.5zm6.25 10H25c.688 0 1.25.563 1.25 1.25v.883a3.135 3.135 0 0 0-1.875 2.867 3.124 3.124 0 1 0 6.25 0 3.135 3.135 0 0 0-1.875-2.867v-.883c0-2.07-1.68-3.75-3.75-3.75h-3.75V6.25a3.751 3.751 0 0 1 7.484-.36c.047.524.422.97.938 1.094a3.763 3.763 0 0 1 2.758 4.36c-.117.594.21 1.187.78 1.406a3.74 3.74 0 0 1 2.415 3.5c0 .406-.063.805-.188 1.172-.156.476-.015 1 .36 1.328A4.965 4.965 0 0 1 37.5 22.5c0 1.79-.938 3.36-2.36 4.242a1.256 1.256 0 0 0-.492 1.547 4.378 4.378 0 0 1-4.773 6.016 1.245 1.245 0 0 0-1.375.78 3.753 3.753 0 0 1-3.5 2.407c-2.07 0-3.75-1.68-3.75-3.75v-3.75h4.633a3.135 3.135 0 0 0 2.867 1.875 3.124 3.124 0 1 0 0-6.25 3.135 3.135 0 0 0-2.867 1.875l-4.633.008v-15zM15 40c2.047 0 3.86-.984 5-2.5a6.244 6.244 0 0 0 5 2.5 6.248 6.248 0 0 0 5.414-3.125h.211a6.875 6.875 0 0 0 6.656-8.594A7.499 7.499 0 0 0 40 22.5c0-1.96-.75-3.75-1.984-5.078A6.248 6.248 0 0 0 35 10.836v-.211a6.244 6.244 0 0 0-3.914-5.797A6.25 6.25 0 0 0 20 2.5 6.25 6.25 0 0 0 8.914 4.828 6.244 6.244 0 0 0 5 10.625v.21a6.248 6.248 0 0 0-3.016 6.587A7.436 7.436 0 0 0 0 22.5a7.499 7.499 0 0 0 2.719 5.781 6.875 6.875 0 0 0 6.656 8.594h.21A6.248 6.248 0 0 0 15 40zm-1.25-30a1.25 1.25 0 1 1 0 2.5 1.25 1.25 0 0 1 0-2.5zM12.5 26.25a1.25 1.25 0 1 1 0 2.5 1.25 1.25 0 0 1 0-2.5zm13.75-8.75a1.25 1.25 0 1 1 2.5 0 1.25 1.25 0 0 1-2.5 0zm2.5 10a1.25 1.25 0 1 1 0 2.5 1.25 1.25 0 0 1 0-2.5z" fill="#000"/>
    </g>
    <defs>
        <clipPath id="luc9q7ivaa">
            <path fill="#fff" d="M0 0h40v40H0z"/>
        </clipPath>
    </defs>
</svg>
