<svg width="40" height="46" viewBox="0 0 40 46" fill="none" xmlns="http://www.w3.org/2000/svg">
    <g clip-path="url(#j7e51tmu6a)">
        <path d="M14.286 34.5a2.863 2.863 0 0 1-2.857-2.875V5.75a2.863 2.863 0 0 1 2.857-2.875h12.857v7.188A2.863 2.863 0 0 0 30 12.937h7.143v18.688a2.863 2.863 0 0 1-2.857 2.875h-20zM30 5.166l4.821 4.896H30V5.167zM14.286 0C11.134 0 8.57 2.579 8.57 5.75v25.875c0 3.172 2.563 5.75 5.715 5.75h20c3.151 0 5.714-2.578 5.714-5.75V13.009a4.326 4.326 0 0 0-1.241-3.036l-8.572-8.697A4.27 4.27 0 0 0 27.143 0H14.286zM2.857 10.063c0-.791-.643-1.438-1.428-1.438C.643 8.625 0 9.272 0 10.063V34.5C0 40.852 5.116 46 11.429 46H30a1.437 1.437 0 0 0 0-2.875H11.429c-4.733 0-8.572-3.863-8.572-8.625V10.062z" fill="#000"/>
    </g>
    <defs>
        <clipPath id="j7e51tmu6a">
            <path fill="#fff" d="M0 0h40v46H0z"/>
        </clipPath>
    </defs>
</svg>
