<svg width="40" height="40" viewBox="0 0 40 40" fill="none" xmlns="http://www.w3.org/2000/svg">
    <g clip-path="url(#c7cbifhipa)">
        <path d="M13.75 1.25C13.75.562 13.187 0 12.5 0c-.688 0-1.25.563-1.25 1.25V5H10c-2.758 0-5 2.242-5 5v1.25H1.25c-.688 0-1.25.563-1.25 1.25 0 .688.563 1.25 1.25 1.25H5v5H1.25C.562 18.75 0 19.313 0 20c0 .688.563 1.25 1.25 1.25H5v5H1.25c-.688 0-1.25.563-1.25 1.25 0 .688.563 1.25 1.25 1.25H5V30c0 2.758 2.242 5 5 5h1.25v3.75c0 .688.563 1.25 1.25 1.25.688 0 1.25-.563 1.25-1.25V35h5v3.75c0 .688.563 1.25 1.25 1.25.688 0 1.25-.563 1.25-1.25V35h5v3.75c0 .688.563 1.25 1.25 1.25.688 0 1.25-.563 1.25-1.25V35H30c2.758 0 5-2.242 5-5v-1.25h3.75c.688 0 1.25-.563 1.25-1.25 0-.688-.563-1.25-1.25-1.25H35v-5h3.75c.688 0 1.25-.563 1.25-1.25 0-.688-.563-1.25-1.25-1.25H35v-5h3.75c.688 0 1.25-.563 1.25-1.25 0-.688-.563-1.25-1.25-1.25H35V10c0-2.758-2.242-5-5-5h-1.25V1.25C28.75.562 28.187 0 27.5 0c-.688 0-1.25.563-1.25 1.25V5h-5V1.25C21.25.562 20.687 0 20 0c-.688 0-1.25.563-1.25 1.25V5h-5V1.25zM32.5 10v20c0 1.383-1.117 2.5-2.5 2.5H10A2.497 2.497 0 0 1 7.5 30V10c0-1.383 1.117-2.5 2.5-2.5h20c1.383 0 2.5 1.117 2.5 2.5zm-20 0a2.497 2.497 0 0 0-2.5 2.5v15c0 1.383 1.117 2.5 2.5 2.5h15c1.383 0 2.5-1.117 2.5-2.5v-15c0-1.383-1.117-2.5-2.5-2.5h-15zm15 2.5v15h-15v-15h15z" fill="#000"/>
    </g>
    <defs>
        <clipPath id="c7cbifhipa">
            <path fill="#fff" d="M0 0h40v40H0z"/>
        </clipPath>
    </defs>
</svg>
