<svg width="40" height="35" viewBox="0 0 40 35" fill="none" xmlns="http://www.w3.org/2000/svg">
    <path d="M35 2.5c1.383 0 2.5 1.117 2.5 2.5v25c0 1.383-1.117 2.5-2.5 2.5H5A2.497 2.497 0 0 1 2.5 30V5c0-1.383 1.117-2.5 2.5-2.5h30zM5 0C2.242 0 0 2.242 0 5v25c0 2.758 2.242 5 5 5h30c2.758 0 5-2.242 5-5V5c0-2.758-2.242-5-5-5H5zm2.805 9.188a1.25 1.25 0 0 0 .133 1.765l7.64 6.547-7.64 6.555a1.25 1.25 0 0 0-.133 1.765 1.244 1.244 0 0 0 1.765.133l8.75-7.5c.274-.234.438-.586.438-.945 0-.36-.156-.711-.438-.945l-8.75-7.5a1.25 1.25 0 0 0-1.765.132v-.008zM17.5 25c-.688 0-1.25.563-1.25 1.25 0 .688.563 1.25 1.25 1.25h13.75c.688 0 1.25-.563 1.25-1.25 0-.688-.563-1.25-1.25-1.25H17.5z" fill="#000"/>
</svg>
